<?xml version="1.0" encoding="UTF-8" standalone="no"?>
<svg width="800" height="600" xmlns="http://www.w3.org/2000/svg">
    <!-- Styles -->
    <style>
        .box { fill: #f8f9fa; stroke: #6c4bf5; stroke-width: 2; }
        .user-box { fill: #e9ecef; stroke: #495057; stroke-width: 2; }
        .chain-box { fill: #e3f2fd; stroke: #0d6efd; stroke-width: 2; }
        .admin-box { fill: #f3e5f5; stroke: #6c4bf5; stroke-width: 2; }
        .arrow { fill: none; stroke: #495057; stroke-width: 2; marker-end: url(#arrowhead); }
        .success-arrow { fill: none; stroke: #198754; stroke-width: 2; marker-end: url(#greenhead); }
        .fail-arrow { fill: none; stroke: #dc3545; stroke-width: 2; marker-end: url(#redhead); stroke-dasharray: 5,5; }
        .process-arrow { fill: none; stroke: #6c4bf5; stroke-width: 3; marker-end: url(#purplehead); }
        .text-label { font-family: Arial; font-size: 14px; fill: #212529; }
        .status-label { font-family: Arial; font-size: 12px; font-weight: bold; }
        .pending { fill: #fd7e14; }
        .processing { fill: #0dcaf0; }
        .completed { fill: #198754; }
        .failed { fill: #dc3545; }
        .title { font-family: Arial; font-size: 24px; font-weight: bold; fill: #212529; }
        .subtitle { font-family: Arial; font-size: 16px; fill: #6c757d; }
        .label { font-family: Arial; font-size: 14px; fill: #495057; }
        .step { font-family: Arial; font-size: 14px; font-weight: bold; fill: #6c4bf5; }
    </style>
    
    <!-- Arrow markers -->
    <defs>
        <marker id="arrowhead" markerWidth="10" markerHeight="7" refX="8" refY="3.5" orient="auto">
            <polygon points="0 0, 10 3.5, 0 7" fill="#495057" />
        </marker>
        <marker id="greenhead" markerWidth="10" markerHeight="7" refX="8" refY="3.5" orient="auto">
            <polygon points="0 0, 10 3.5, 0 7" fill="#198754" />
        </marker>
        <marker id="redhead" markerWidth="10" markerHeight="7" refX="8" refY="3.5" orient="auto">
            <polygon points="0 0, 10 3.5, 0 7" fill="#dc3545" />
        </marker>
        <marker id="purplehead" markerWidth="10" markerHeight="7" refX="8" refY="3.5" orient="auto">
            <polygon points="0 0, 10 3.5, 0 7" fill="#6c4bf5" />
        </marker>
    </defs>
    
    <!-- Title -->
    <text x="400" y="40" text-anchor="middle" class="title">Link3 Token Redemption Process</text>
    <text x="400" y="65" text-anchor="middle" class="subtitle">Off-chain to On-chain Token Conversion Flow</text>
    
    <!-- User environment -->
    <rect x="50" y="100" width="280" height="440" rx="10" class="user-box" opacity="0.2" />
    <text x="100" y="130" class="label">User Environment</text>
    
    <!-- Link3 system -->
    <rect x="350" y="100" width="180" height="440" rx="10" class="box" opacity="0.1" />
    <text x="400" y="130" class="label">Link3 System</text>
    
    <!-- Blockchain environment -->
    <rect x="550" y="100" width="200" height="440" rx="10" class="chain-box" opacity="0.2" />
    <text x="630" y="130" class="label">Blockchain</text>
    
    <!-- User wallet -->
    <rect x="80" y="160" width="180" height="60" rx="5" class="user-box" />
    <text x="170" y="195" text-anchor="middle" class="text-label">User Connects Wallet</text>
    <text x="90" y="175" class="step">Step 1</text>
    
    <!-- Wallet verification -->
    <rect x="80" y="250" width="180" height="60" rx="5" class="user-box" />
    <text x="170" y="285" text-anchor="middle" class="text-label">Verify Wallet Ownership</text>
    <text x="90" y="265" class="step">Step 2</text>
    
    <!-- Redemption request -->
    <rect x="80" y="340" width="180" height="60" rx="5" class="user-box" />
    <text x="170" y="375" text-anchor="middle" class="text-label">Request Token Redemption</text>
    <text x="90" y="355" class="step">Step 3</text>
    
    <!-- User receives tokens -->
    <rect x="80" y="460" width="180" height="60" rx="5" class="user-box" />
    <text x="170" y="490" text-anchor="middle" class="text-label">Receive On-Chain Tokens</text>
    <text x="90" y="475" class="step">Step 7</text>
    
    <!-- Link3 processing -->
    <rect x="350" y="190" width="150" height="60" rx="5" class="box" />
    <text x="425" y="220" text-anchor="middle" class="text-label">Register Wallet</text>
    
    <!-- Off-chain balance -->
    <rect x="350" y="280" width="150" height="60" rx="5" class="box" />
    <text x="425" y="310" text-anchor="middle" class="text-label">Deduct Off-Chain Balance</text>
    
    <!-- Create redemption request -->
    <rect x="350" y="370" width="150" height="60" rx="5" class="box" />
    <text x="425" y="400" text-anchor="middle" class="text-label">Create Redemption Record</text>
    <text x="425" y="418" text-anchor="middle" class="status-label pending">"pending"</text>
    
    <!-- Backend processing -->
    <rect x="350" y="460" width="150" height="60" rx="5" class="admin-box" />
    <text x="425" y="490" text-anchor="middle" class="text-label">Background Processor</text>
    <text x="425" y="508" text-anchor="middle" class="status-label processing">"processing"</text>
    
    <!-- Blockchain transaction -->
    <rect x="570" y="370" width="160" height="60" rx="5" class="chain-box" />
    <text x="650" y="400" text-anchor="middle" class="text-label">Send Tokens On-Chain</text>
    <text x="650" y="418" text-anchor="middle" class="status-label completed">"completed"</text>
    
    <!-- Failed transaction -->
    <rect x="570" y="460" width="160" height="60" rx="5" class="chain-box" />
    <text x="650" y="490" text-anchor="middle" class="text-label">Error Handling</text>
    <text x="650" y="508" text-anchor="middle" class="status-label failed">"failed"</text>
    
    <!-- Arrows -->
    <path d="M170,220 L170,250" class="arrow" />
    <path d="M170,310 L170,340" class="arrow" />
    
    <path d="M260,190 L350,215" class="arrow" />
    <path d="M260,370 L350,310" class="arrow" />
    <path d="M425,340 L425,370" class="arrow" />
    <path d="M425,430 L425,460" class="process-arrow" />
    
    <path d="M500,490 L570,400" class="success-arrow" />
    <path d="M500,500 L570,490" class="fail-arrow" />
    
    <path d="M570,390 L260,475" class="success-arrow" />
    
    <!-- Legend -->
    <rect x="600" y="160" width="120" height="120" rx="5" fill="white" stroke="#ddd" />
    <text x="660" y="180" text-anchor="middle" class="label">Status Legend</text>
    
    <text x="620" y="205" class="status-label pending">Pending</text>
    <text x="680" y="205" class="text-label">Request received</text>
    
    <text x="620" y="225" class="status-label processing">Processing</text>
    <text x="680" y="225" class="text-label">In progress</text>
    
    <text x="620" y="245" class="status-label completed">Completed</text>
    <text x="680" y="245" class="text-label">Success</text>
    
    <text x="620" y="265" class="status-label failed">Failed</text>
    <text x="680" y="265" class="text-label">Error occurred</text>
</svg>